<?xml version="1.0" encoding="utf-8"?>
<!-- Generator: Adobe Illustrator 18.1.1, SVG Export Plug-In . SVG Version: 6.00 Build 0)  -->
<!DOCTYPE svg PUBLIC "-//W3C//DTD SVG 1.1//EN" "http://www.w3.org/Graphics/SVG/1.1/DTD/svg11.dtd">
<svg version="1.1" id="Calque_1" xmlns="http://www.w3.org/2000/svg" xmlns:xlink="http://www.w3.org/1999/xlink" x="0px" y="0px"
	 viewBox="-164 42.3 512 512" enable-background="new -164 42.3 512 512" xml:space="preserve">
<path id="pinterest-circle-outline-icon" fill="#AC8B1A" d="M92.4,132.3c44.3,0,86,17.3,117.4,48.6c31.4,31.4,48.6,73,48.6,117.4
	s-17.3,86-48.6,117.4c-31.4,31.4-73,48.6-117.4,48.6S6.4,447-25,415.7c-31.4-31.4-48.6-73-48.6-117.4s17.3-86,48.6-117.4
	C6.4,149.5,48.1,132.3,92.4,132.3 M92.4,92.3c-113.8,0-206,92.2-206,206s92.2,206,206,206s206-92.2,206-206S206.2,92.3,92.4,92.3
	L92.4,92.3z M100.9,191.5C37.1,191.5,5,237.2,5,275.3c0,23.1,8.7,43.6,27.5,51.3c3.1,1.3,5.8,0,6.7-3.4c0.6-2.4,2.1-8.3,2.7-10.8
	c0.9-3.4,0.6-4.5-1.9-7.5c-5.4-6.4-8.9-14.6-8.9-26.3c0-33.9,25.4-64.3,66.1-64.3c36,0,55.8,22,55.8,51.4
	c0,38.7-17.1,71.3-42.5,71.3c-14,0-24.5-11.6-21.2-25.8c4-17,11.8-35.3,11.8-47.6c0-11-5.9-20.1-18.1-20.1
	c-14.4,0-25.9,14.8-25.9,34.7c0,12.7,4.3,21.2,4.3,21.2s-14.7,62.2-17.3,73.1c-5.1,21.7-0.8,48.3-0.4,51c0.2,1.6,2.3,2,3.2,0.8
	c1.3-1.7,18.4-22.8,24.2-43.9c1.6-6,9.4-36.9,9.4-36.9c4.7,8.9,18.3,16.7,32.8,16.7c43.1,0,72.4-39.3,72.4-92
	C185.8,228.5,152.1,191.5,100.9,191.5z"/>
</svg>
